<?xml version="1.0" encoding="utf-8"?>
<!-- Generator: Adobe Illustrator 20.0.0, SVG Export Plug-In . SVG Version: 6.00 Build 0)  -->
<svg version="1.1" id="Layer_5" xmlns="http://www.w3.org/2000/svg" xmlns:xlink="http://www.w3.org/1999/xlink" x="0px" y="0px"
	 viewBox="0 0 152 153.4" enable-background="new 0 0 152 153.4" xml:space="preserve">
<radialGradient id="SVGID_1_" cx="76.0183" cy="76.7145" r="76.1822" gradientUnits="userSpaceOnUse">
	<stop  offset="0.3436" style="stop-color:#F7F7F7"/>
	<stop  offset="0.3454" style="stop-color:#EFF4F6"/>
	<stop  offset="0.356" style="stop-color:#C6E5F2"/>
	<stop  offset="0.3677" style="stop-color:#A0D6EE"/>
	<stop  offset="0.3806" style="stop-color:#80CAEB"/>
	<stop  offset="0.3948" style="stop-color:#64C0E8"/>
	<stop  offset="0.4108" style="stop-color:#4EB8E6"/>
	<stop  offset="0.4295" style="stop-color:#3DB2E4"/>
	<stop  offset="0.4527" style="stop-color:#32ADE3"/>
	<stop  offset="0.4851" style="stop-color:#2BABE2"/>
	<stop  offset="0.5753" style="stop-color:#29AAE2"/>
	<stop  offset="0.6157" style="stop-color:#22A4DA"/>
	<stop  offset="0.6769" style="stop-color:#099ACD"/>
	<stop  offset="0.751" style="stop-color:#0088B6"/>
	<stop  offset="0.8355" style="stop-color:#006E95"/>
	<stop  offset="0.9272" style="stop-color:#004D6D"/>
	<stop  offset="1" style="stop-color:#002C44"/>
</radialGradient>
<path fill="url(#SVGID_1_)" d="M137.2,15.8c5.6,9.4,8.9,20.7,8.8,31.6c-0.1,4.8,0.2,18.1-6.2,19.7c-3,0.7-4.6-3.1-4.9-5.6
	c-3.5-27-23.5-46.9-46.9-56.3C63.3-4.1,35.2-0.6,14.1,15.8c10.8-5.4,23.4-10.8,35.7-9.7c3.7,0.3,13.3,1.5,15.3,5.5
	c1.9,3.9-3.6,5.3-6.6,6.1C47.7,20.8,37,25.1,27.6,32.3c-3.5,2.6-6.6,5.7-9.4,9c-5.5,6.5-10,13.8-13,21.8
	c-7.3,19.4-6.4,40.1,1.6,59.1c2.2,5.3,4.9,10.5,7.8,15.4c-5.6-9.4-8.9-20.7-8.8-31.6c0.1-4.8-0.2-18.1,6.2-19.7
	c3-0.7,4.6,3.1,4.9,5.6c3.5,27,23.5,46.9,46.9,56.3c24.6,9.4,52.8,5.9,73.9-10.5c-10.8,5.4-23.4,10.8-35.7,9.7
	c-3.7-0.3-13.3-1.4-15.3-5.5c-1.9-3.9,3.7-5.1,6.6-6.1c11.1-3.9,21.6-7.5,31-14.7c3.5-2.7,6.7-5.7,9.5-9c5.6-6.6,10-14.2,13-22.3
	c3.6-9.7,5.6-20,4.9-30.3c-0.7-9.7-3.1-19.4-6.8-28.4C142.7,25.7,140,20.6,137.2,15.8z M100.3,112.2c0.6,3.4,5.3,1.9,7.5,1.3
	c9.5-2.8,17.3-9.2,23.2-17c-14.9,25.9-51.7,36-76.1,16.9c-3.4-3.3-6.8-6.5-10.1-9.9c-1.4-1.5-3.7-4.6-5.6-2.3
	c-1.9,2.3,0.1,8.5,1,10.8c2.8,7.8,9.6,14,15.9,19c-15.9-8.2-25.9-24.4-27.1-41.9c-0.6-8.3,0.6-15.7,3.9-23.3
	c1.6-3.7,3.7-7.1,6.2-10.3c2.5-3.2,5.6-5.5,8.6-8.3c1.4-1.3,4.1-3.8,3.8-5.9c-0.6-3.4-5.3-1.9-7.5-1.3c-9.5,2.8-17.3,9.2-23.2,17
	c14.9-25.9,51.7-36,76-17c3.4,3.3,6.8,6.5,10.1,9.9c1.4,1.5,3.7,4.6,5.6,2.3c1.9-2.3-0.1-8.5-1-10.8c-2.8-7.8-9.6-14-15.9-19
	c15.9,8.2,25.9,24.3,27.1,41.9c0.8,12.1-2.5,24.1-10.1,33.6c-2.5,3.2-5.6,5.5-8.6,8.3C102.7,107.5,99.9,110.1,100.3,112.2z"/>
</svg>
